<?xml version="1.0" encoding="UTF-8" standalone="no"?>
<!DOCTYPE svg PUBLIC "-//W3C//DTD SVG 1.1//EN"
 "http://www.w3.org/Graphics/SVG/1.1/DTD/svg11.dtd">
<!-- Generated by graphviz version 2.38.0 (20140413.2041)
 -->
<!-- Title: controllers_diagram Pages: 1 -->
<svg width="978pt" height="1011pt"
 viewBox="0.00 0.00 977.98 1011.00" xmlns="http://www.w3.org/2000/svg" xmlns:xlink="http://www.w3.org/1999/xlink">
<g id="graph0" class="graph" transform="scale(1 1) rotate(0) translate(443.821 607.5)">
<title>controllers_diagram</title>
<polygon fill="none" stroke="none" points="-443.821,403.5 -443.821,-607.5 534.155,-607.5 534.155,403.5 -443.821,403.5"/>
<!-- _diagram_info -->
<g id="node1" class="node"><title>_diagram_info</title>
<text text-anchor="start" x="-271.688" y="300.9" font-family="Times,serif" font-size="13.00">Controllers diagram</text>
<text text-anchor="start" x="-271.688" y="313.9" font-family="Times,serif" font-size="13.00">Date: Jun 02 2016 &#45; 19:57</text>
<text text-anchor="start" x="-271.688" y="326.9" font-family="Times,serif" font-size="13.00">Migration version: 20160520124020</text>
<text text-anchor="start" x="-271.688" y="339.9" font-family="Times,serif" font-size="13.00">Generated by RailRoady 1.4.2</text>
<text text-anchor="start" x="-271.688" y="352.9" font-family="Times,serif" font-size="13.00">http://railroady.prestonlee.com</text>
</g>
<!-- AnalysisController -->
<g id="node2" class="node"><title>AnalysisController</title>
<path fill="none" stroke="black" d="M92.3618,79C92.3618,79 191.638,79 191.638,79 197.638,79 203.638,73 203.638,67 203.638,67 203.638,-265 203.638,-265 203.638,-271 197.638,-277 191.638,-277 191.638,-277 92.3618,-277 92.3618,-277 86.3618,-277 80.3618,-271 80.3618,-265 80.3618,-265 80.3618,67 80.3618,67 80.3618,73 86.3618,79 92.3618,79"/>
<text text-anchor="middle" x="142" y="-261.8" font-family="Times,serif" font-size="14.00">AnalysisController</text>
<polyline fill="none" stroke="black" points="80.3618,-255 203.638,-255 "/>
<text text-anchor="start" x="88.3618" y="-239.8" font-family="Times,serif" font-size="14.00">dash_bord</text>
<text text-anchor="start" x="88.3618" y="-225.8" font-family="Times,serif" font-size="14.00">diet</text>
<text text-anchor="start" x="88.3618" y="-211.8" font-family="Times,serif" font-size="14.00">diet_chart</text>
<text text-anchor="start" x="88.3618" y="-197.8" font-family="Times,serif" font-size="14.00">fat_chart</text>
<text text-anchor="start" x="88.3618" y="-183.8" font-family="Times,serif" font-size="14.00">feel</text>
<text text-anchor="start" x="88.3618" y="-169.8" font-family="Times,serif" font-size="14.00">gym</text>
<text text-anchor="start" x="88.3618" y="-155.8" font-family="Times,serif" font-size="14.00">gym_chart</text>
<text text-anchor="start" x="88.3618" y="-141.8" font-family="Times,serif" font-size="14.00">health</text>
<text text-anchor="start" x="88.3618" y="-127.8" font-family="Times,serif" font-size="14.00">health_feel_chart</text>
<text text-anchor="start" x="88.3618" y="-113.8" font-family="Times,serif" font-size="14.00">health_hour_chart</text>
<text text-anchor="start" x="88.3618" y="-99.8" font-family="Times,serif" font-size="14.00">health_water_chart</text>
<text text-anchor="start" x="88.3618" y="-85.8" font-family="Times,serif" font-size="14.00">home</text>
<text text-anchor="start" x="88.3618" y="-71.8" font-family="Times,serif" font-size="14.00">index</text>
<text text-anchor="start" x="88.3618" y="-57.8" font-family="Times,serif" font-size="14.00">pie_parts</text>
<text text-anchor="start" x="88.3618" y="-43.8" font-family="Times,serif" font-size="14.00">pie_place</text>
<text text-anchor="start" x="88.3618" y="-29.8" font-family="Times,serif" font-size="14.00">size</text>
<text text-anchor="start" x="88.3618" y="-15.8" font-family="Times,serif" font-size="14.00">size_chart</text>
<text text-anchor="start" x="88.3618" y="-1.8" font-family="Times,serif" font-size="14.00">water</text>
<text text-anchor="start" x="88.3618" y="12.2" font-family="Times,serif" font-size="14.00">weight</text>
<text text-anchor="start" x="88.3618" y="26.2" font-family="Times,serif" font-size="14.00">weight_chart</text>
<polyline fill="none" stroke="black" points="80.3618,33 203.638,33 "/>
<polyline fill="none" stroke="black" points="80.3618,57 203.638,57 "/>
<text text-anchor="start" x="88.3618" y="72.2" font-family="Times,serif" font-size="14.00">_layout</text>
</g>
<!-- ApplicationController -->
<g id="node3" class="node"><title>ApplicationController</title>
<path fill="none" stroke="black" d="M-427.821,-241C-427.821,-241 -312.179,-241 -312.179,-241 -306.179,-241 -300.179,-247 -300.179,-253 -300.179,-253 -300.179,-347 -300.179,-347 -300.179,-353 -306.179,-359 -312.179,-359 -312.179,-359 -427.821,-359 -427.821,-359 -433.821,-359 -439.821,-353 -439.821,-347 -439.821,-347 -439.821,-253 -439.821,-253 -439.821,-247 -433.821,-241 -427.821,-241"/>
<text text-anchor="middle" x="-370" y="-343.8" font-family="Times,serif" font-size="14.00">ApplicationController</text>
<polyline fill="none" stroke="black" points="-439.821,-337 -300.179,-337 "/>
<text text-anchor="start" x="-431.821" y="-321.8" font-family="Times,serif" font-size="14.00">default_url_options</text>
<text text-anchor="start" x="-431.821" y="-307.8" font-family="Times,serif" font-size="14.00">set_locale</text>
<polyline fill="none" stroke="black" points="-439.821,-301 -300.179,-301 "/>
<polyline fill="none" stroke="black" points="-439.821,-277 -300.179,-277 "/>
<text text-anchor="start" x="-431.821" y="-261.8" font-family="Times,serif" font-size="14.00">_layout</text>
<text text-anchor="start" x="-431.821" y="-247.8" font-family="Times,serif" font-size="14.00">current_user</text>
</g>
<!-- ConditionsController -->
<g id="node4" class="node"><title>ConditionsController</title>
<path fill="none" stroke="black" d="M-247.5,-321C-247.5,-321 -136.5,-321 -136.5,-321 -130.5,-321 -124.5,-327 -124.5,-333 -124.5,-333 -124.5,-511 -124.5,-511 -124.5,-517 -130.5,-523 -136.5,-523 -136.5,-523 -247.5,-523 -247.5,-523 -253.5,-523 -259.5,-517 -259.5,-511 -259.5,-511 -259.5,-333 -259.5,-333 -259.5,-327 -253.5,-321 -247.5,-321"/>
<text text-anchor="middle" x="-192" y="-507.8" font-family="Times,serif" font-size="14.00">ConditionsController</text>
<polyline fill="none" stroke="black" points="-259.5,-501 -124.5,-501 "/>
<polyline fill="none" stroke="black" points="-259.5,-477 -124.5,-477 "/>
<text text-anchor="start" x="-251.5" y="-461.8" font-family="Times,serif" font-size="14.00">collection_path</text>
<text text-anchor="start" x="-251.5" y="-447.8" font-family="Times,serif" font-size="14.00">collection_url</text>
<text text-anchor="start" x="-251.5" y="-433.8" font-family="Times,serif" font-size="14.00">edit_resource_path</text>
<text text-anchor="start" x="-251.5" y="-419.8" font-family="Times,serif" font-size="14.00">edit_resource_url</text>
<text text-anchor="start" x="-251.5" y="-405.8" font-family="Times,serif" font-size="14.00">new_resource_path</text>
<text text-anchor="start" x="-251.5" y="-391.8" font-family="Times,serif" font-size="14.00">new_resource_url</text>
<text text-anchor="start" x="-251.5" y="-377.8" font-family="Times,serif" font-size="14.00">resource_path</text>
<text text-anchor="start" x="-251.5" y="-363.8" font-family="Times,serif" font-size="14.00">resource_url</text>
<polyline fill="none" stroke="black" points="-259.5,-357 -124.5,-357 "/>
<text text-anchor="start" x="-251.5" y="-341.8" font-family="Times,serif" font-size="14.00">_layout</text>
<text text-anchor="start" x="-251.5" y="-327.8" font-family="Times,serif" font-size="14.00">condition_params</text>
</g>
<!-- DietsController -->
<g id="node5" class="node"><title>DietsController</title>
<path fill="none" stroke="black" d="M91.5791,319C91.5791,319 192.421,319 192.421,319 198.421,319 204.421,313 204.421,307 204.421,307 204.421,129 204.421,129 204.421,123 198.421,117 192.421,117 192.421,117 91.5791,117 91.5791,117 85.5791,117 79.5791,123 79.5791,129 79.5791,129 79.5791,307 79.5791,307 79.5791,313 85.5791,319 91.5791,319"/>
<text text-anchor="middle" x="142" y="132.2" font-family="Times,serif" font-size="14.00">DietsController</text>
<polyline fill="none" stroke="black" points="79.5791,139 204.421,139 "/>
<polyline fill="none" stroke="black" points="79.5791,163 204.421,163 "/>
<text text-anchor="start" x="87.5791" y="178.2" font-family="Times,serif" font-size="14.00">collection_path</text>
<text text-anchor="start" x="87.5791" y="192.2" font-family="Times,serif" font-size="14.00">collection_url</text>
<text text-anchor="start" x="87.5791" y="206.2" font-family="Times,serif" font-size="14.00">edit_resource_path</text>
<text text-anchor="start" x="87.5791" y="220.2" font-family="Times,serif" font-size="14.00">edit_resource_url</text>
<text text-anchor="start" x="87.5791" y="234.2" font-family="Times,serif" font-size="14.00">new_resource_path</text>
<text text-anchor="start" x="87.5791" y="248.2" font-family="Times,serif" font-size="14.00">new_resource_url</text>
<text text-anchor="start" x="87.5791" y="262.2" font-family="Times,serif" font-size="14.00">resource_path</text>
<text text-anchor="start" x="87.5791" y="276.2" font-family="Times,serif" font-size="14.00">resource_url</text>
<polyline fill="none" stroke="black" points="79.5791,283 204.421,283 "/>
<text text-anchor="start" x="87.5791" y="298.2" font-family="Times,serif" font-size="14.00">_layout</text>
<text text-anchor="start" x="87.5791" y="312.2" font-family="Times,serif" font-size="14.00">diet_params</text>
</g>
<!-- EquipmentController -->
<g id="node6" class="node"><title>EquipmentController</title>
<path fill="none" stroke="black" d="M391.51,-41C391.51,-41 502.49,-41 502.49,-41 508.49,-41 514.49,-47 514.49,-53 514.49,-53 514.49,-231 514.49,-231 514.49,-237 508.49,-243 502.49,-243 502.49,-243 391.51,-243 391.51,-243 385.51,-243 379.51,-237 379.51,-231 379.51,-231 379.51,-53 379.51,-53 379.51,-47 385.51,-41 391.51,-41"/>
<text text-anchor="middle" x="447" y="-227.8" font-family="Times,serif" font-size="14.00">EquipmentController</text>
<polyline fill="none" stroke="black" points="379.51,-221 514.49,-221 "/>
<text text-anchor="start" x="387.51" y="-205.8" font-family="Times,serif" font-size="14.00">create</text>
<text text-anchor="start" x="387.51" y="-191.8" font-family="Times,serif" font-size="14.00">destroy</text>
<text text-anchor="start" x="387.51" y="-177.8" font-family="Times,serif" font-size="14.00">edit</text>
<text text-anchor="start" x="387.51" y="-163.8" font-family="Times,serif" font-size="14.00">index</text>
<text text-anchor="start" x="387.51" y="-149.8" font-family="Times,serif" font-size="14.00">new</text>
<text text-anchor="start" x="387.51" y="-135.8" font-family="Times,serif" font-size="14.00">show</text>
<text text-anchor="start" x="387.51" y="-121.8" font-family="Times,serif" font-size="14.00">update</text>
<polyline fill="none" stroke="black" points="379.51,-115 514.49,-115 "/>
<polyline fill="none" stroke="black" points="379.51,-91 514.49,-91 "/>
<text text-anchor="start" x="387.51" y="-75.8" font-family="Times,serif" font-size="14.00">_layout</text>
<text text-anchor="start" x="387.51" y="-61.8" font-family="Times,serif" font-size="14.00">equipment_params</text>
<text text-anchor="start" x="387.51" y="-47.8" font-family="Times,serif" font-size="14.00">set_equipment</text>
</g>
<!-- FeelingsController -->
<g id="node7" class="node"><title>FeelingsController</title>
<path fill="none" stroke="black" d="M-388.421,-1C-388.421,-1 -287.579,-1 -287.579,-1 -281.579,-1 -275.579,-7 -275.579,-13 -275.579,-13 -275.579,-191 -275.579,-191 -275.579,-197 -281.579,-203 -287.579,-203 -287.579,-203 -388.421,-203 -388.421,-203 -394.421,-203 -400.421,-197 -400.421,-191 -400.421,-191 -400.421,-13 -400.421,-13 -400.421,-7 -394.421,-1 -388.421,-1"/>
<text text-anchor="middle" x="-338" y="-187.8" font-family="Times,serif" font-size="14.00">FeelingsController</text>
<polyline fill="none" stroke="black" points="-400.421,-181 -275.579,-181 "/>
<polyline fill="none" stroke="black" points="-400.421,-157 -275.579,-157 "/>
<text text-anchor="start" x="-392.421" y="-141.8" font-family="Times,serif" font-size="14.00">collection_path</text>
<text text-anchor="start" x="-392.421" y="-127.8" font-family="Times,serif" font-size="14.00">collection_url</text>
<text text-anchor="start" x="-392.421" y="-113.8" font-family="Times,serif" font-size="14.00">edit_resource_path</text>
<text text-anchor="start" x="-392.421" y="-99.8" font-family="Times,serif" font-size="14.00">edit_resource_url</text>
<text text-anchor="start" x="-392.421" y="-85.8" font-family="Times,serif" font-size="14.00">new_resource_path</text>
<text text-anchor="start" x="-392.421" y="-71.8" font-family="Times,serif" font-size="14.00">new_resource_url</text>
<text text-anchor="start" x="-392.421" y="-57.8" font-family="Times,serif" font-size="14.00">resource_path</text>
<text text-anchor="start" x="-392.421" y="-43.8" font-family="Times,serif" font-size="14.00">resource_url</text>
<polyline fill="none" stroke="black" points="-400.421,-37 -275.579,-37 "/>
<text text-anchor="start" x="-392.421" y="-21.8" font-family="Times,serif" font-size="14.00">_layout</text>
<text text-anchor="start" x="-392.421" y="-7.8" font-family="Times,serif" font-size="14.00">feeling_params</text>
</g>
<!-- FoodCategoriesController -->
<g id="node8" class="node"><title>FoodCategoriesController</title>
<path fill="none" stroke="black" d="M-268.1,239C-268.1,239 -129.9,239 -129.9,239 -123.9,239 -117.9,233 -117.9,227 -117.9,227 -117.9,49 -117.9,49 -117.9,43 -123.9,37 -129.9,37 -129.9,37 -268.1,37 -268.1,37 -274.1,37 -280.1,43 -280.1,49 -280.1,49 -280.1,227 -280.1,227 -280.1,233 -274.1,239 -268.1,239"/>
<text text-anchor="middle" x="-199" y="52.2" font-family="Times,serif" font-size="14.00">FoodCategoriesController</text>
<polyline fill="none" stroke="black" points="-280.1,59 -117.9,59 "/>
<polyline fill="none" stroke="black" points="-280.1,83 -117.9,83 "/>
<text text-anchor="start" x="-272.1" y="98.2" font-family="Times,serif" font-size="14.00">collection_path</text>
<text text-anchor="start" x="-272.1" y="112.2" font-family="Times,serif" font-size="14.00">collection_url</text>
<text text-anchor="start" x="-272.1" y="126.2" font-family="Times,serif" font-size="14.00">edit_resource_path</text>
<text text-anchor="start" x="-272.1" y="140.2" font-family="Times,serif" font-size="14.00">edit_resource_url</text>
<text text-anchor="start" x="-272.1" y="154.2" font-family="Times,serif" font-size="14.00">new_resource_path</text>
<text text-anchor="start" x="-272.1" y="168.2" font-family="Times,serif" font-size="14.00">new_resource_url</text>
<text text-anchor="start" x="-272.1" y="182.2" font-family="Times,serif" font-size="14.00">resource_path</text>
<text text-anchor="start" x="-272.1" y="196.2" font-family="Times,serif" font-size="14.00">resource_url</text>
<polyline fill="none" stroke="black" points="-280.1,203 -117.9,203 "/>
<text text-anchor="start" x="-272.1" y="218.2" font-family="Times,serif" font-size="14.00">_layout</text>
<text text-anchor="start" x="-272.1" y="232.2" font-family="Times,serif" font-size="14.00">food_category_params</text>
</g>
<!-- FoodsController -->
<g id="node9" class="node"><title>FoodsController</title>
<path fill="none" stroke="black" d="M411.579,399C411.579,399 512.421,399 512.421,399 518.421,399 524.421,393 524.421,387 524.421,387 524.421,211 524.421,211 524.421,205 518.421,199 512.421,199 512.421,199 411.579,199 411.579,199 405.579,199 399.579,205 399.579,211 399.579,211 399.579,387 399.579,387 399.579,393 405.579,399 411.579,399"/>
<text text-anchor="middle" x="462" y="214.2" font-family="Times,serif" font-size="14.00">FoodsController</text>
<polyline fill="none" stroke="black" points="399.579,221 524.421,221 "/>
<text text-anchor="start" x="407.579" y="236.2" font-family="Times,serif" font-size="14.00">index</text>
<polyline fill="none" stroke="black" points="399.579,243 524.421,243 "/>
<text text-anchor="start" x="407.579" y="258.2" font-family="Times,serif" font-size="14.00">collection_path</text>
<text text-anchor="start" x="407.579" y="272.2" font-family="Times,serif" font-size="14.00">collection_url</text>
<text text-anchor="start" x="407.579" y="286.2" font-family="Times,serif" font-size="14.00">edit_resource_path</text>
<text text-anchor="start" x="407.579" y="300.2" font-family="Times,serif" font-size="14.00">edit_resource_url</text>
<text text-anchor="start" x="407.579" y="314.2" font-family="Times,serif" font-size="14.00">new_resource_path</text>
<text text-anchor="start" x="407.579" y="328.2" font-family="Times,serif" font-size="14.00">new_resource_url</text>
<text text-anchor="start" x="407.579" y="342.2" font-family="Times,serif" font-size="14.00">resource_path</text>
<text text-anchor="start" x="407.579" y="356.2" font-family="Times,serif" font-size="14.00">resource_url</text>
<polyline fill="none" stroke="black" points="399.579,363 524.421,363 "/>
<text text-anchor="start" x="407.579" y="378.2" font-family="Times,serif" font-size="14.00">_layout</text>
<text text-anchor="start" x="407.579" y="392.2" font-family="Times,serif" font-size="14.00">food_params</text>
</g>
<!-- ItemsController -->
<g id="node10" class="node"><title>ItemsController</title>
<path fill="none" stroke="black" d="M251.676,-41C251.676,-41 332.324,-41 332.324,-41 338.324,-41 344.324,-47 344.324,-53 344.324,-53 344.324,-259 344.324,-259 344.324,-265 338.324,-271 332.324,-271 332.324,-271 251.676,-271 251.676,-271 245.676,-271 239.676,-265 239.676,-259 239.676,-259 239.676,-53 239.676,-53 239.676,-47 245.676,-41 251.676,-41"/>
<text text-anchor="middle" x="292" y="-255.8" font-family="Times,serif" font-size="14.00">ItemsController</text>
<polyline fill="none" stroke="black" points="239.676,-249 344.324,-249 "/>
<text text-anchor="start" x="247.676" y="-233.8" font-family="Times,serif" font-size="14.00">create</text>
<text text-anchor="start" x="247.676" y="-219.8" font-family="Times,serif" font-size="14.00">destroy</text>
<text text-anchor="start" x="247.676" y="-205.8" font-family="Times,serif" font-size="14.00">edit</text>
<text text-anchor="start" x="247.676" y="-191.8" font-family="Times,serif" font-size="14.00">import</text>
<text text-anchor="start" x="247.676" y="-177.8" font-family="Times,serif" font-size="14.00">index</text>
<text text-anchor="start" x="247.676" y="-163.8" font-family="Times,serif" font-size="14.00">new</text>
<text text-anchor="start" x="247.676" y="-149.8" font-family="Times,serif" font-size="14.00">search</text>
<text text-anchor="start" x="247.676" y="-135.8" font-family="Times,serif" font-size="14.00">show</text>
<text text-anchor="start" x="247.676" y="-121.8" font-family="Times,serif" font-size="14.00">update</text>
<polyline fill="none" stroke="black" points="239.676,-115 344.324,-115 "/>
<polyline fill="none" stroke="black" points="239.676,-91 344.324,-91 "/>
<text text-anchor="start" x="247.676" y="-75.8" font-family="Times,serif" font-size="14.00">_layout</text>
<text text-anchor="start" x="247.676" y="-61.8" font-family="Times,serif" font-size="14.00">item_params</text>
<text text-anchor="start" x="247.676" y="-47.8" font-family="Times,serif" font-size="14.00">set_item</text>
</g>
<!-- LinesController -->
<g id="node11" class="node"><title>LinesController</title>
<path fill="none" stroke="black" d="M-228.421,-1C-228.421,-1 -127.579,-1 -127.579,-1 -121.579,-1 -115.579,-7 -115.579,-13 -115.579,-13 -115.579,-273 -115.579,-273 -115.579,-279 -121.579,-285 -127.579,-285 -127.579,-285 -228.421,-285 -228.421,-285 -234.421,-285 -240.421,-279 -240.421,-273 -240.421,-273 -240.421,-13 -240.421,-13 -240.421,-7 -234.421,-1 -228.421,-1"/>
<text text-anchor="middle" x="-178" y="-269.8" font-family="Times,serif" font-size="14.00">LinesController</text>
<polyline fill="none" stroke="black" points="-240.421,-263 -115.579,-263 "/>
<text text-anchor="start" x="-232.421" y="-247.8" font-family="Times,serif" font-size="14.00">create</text>
<text text-anchor="start" x="-232.421" y="-233.8" font-family="Times,serif" font-size="14.00">destroy</text>
<text text-anchor="start" x="-232.421" y="-219.8" font-family="Times,serif" font-size="14.00">edit</text>
<text text-anchor="start" x="-232.421" y="-205.8" font-family="Times,serif" font-size="14.00">import</text>
<text text-anchor="start" x="-232.421" y="-191.8" font-family="Times,serif" font-size="14.00">index</text>
<text text-anchor="start" x="-232.421" y="-177.8" font-family="Times,serif" font-size="14.00">new</text>
<text text-anchor="start" x="-232.421" y="-163.8" font-family="Times,serif" font-size="14.00">update</text>
<polyline fill="none" stroke="black" points="-240.421,-157 -115.579,-157 "/>
<text text-anchor="start" x="-232.421" y="-141.8" font-family="Times,serif" font-size="14.00">collection_path</text>
<text text-anchor="start" x="-232.421" y="-127.8" font-family="Times,serif" font-size="14.00">collection_url</text>
<text text-anchor="start" x="-232.421" y="-113.8" font-family="Times,serif" font-size="14.00">edit_resource_path</text>
<text text-anchor="start" x="-232.421" y="-99.8" font-family="Times,serif" font-size="14.00">edit_resource_url</text>
<text text-anchor="start" x="-232.421" y="-85.8" font-family="Times,serif" font-size="14.00">new_resource_path</text>
<text text-anchor="start" x="-232.421" y="-71.8" font-family="Times,serif" font-size="14.00">new_resource_url</text>
<text text-anchor="start" x="-232.421" y="-57.8" font-family="Times,serif" font-size="14.00">resource_path</text>
<text text-anchor="start" x="-232.421" y="-43.8" font-family="Times,serif" font-size="14.00">resource_url</text>
<polyline fill="none" stroke="black" points="-240.421,-37 -115.579,-37 "/>
<text text-anchor="start" x="-232.421" y="-21.8" font-family="Times,serif" font-size="14.00">_layout</text>
<text text-anchor="start" x="-232.421" y="-7.8" font-family="Times,serif" font-size="14.00">line_params</text>
</g>
<!-- MaintenanceController -->
<g id="node12" class="node"><title>MaintenanceController</title>
<path fill="none" stroke="black" d="M312.079,-301C312.079,-301 433.921,-301 433.921,-301 439.921,-301 445.921,-307 445.921,-313 445.921,-313 445.921,-463 445.921,-463 445.921,-469 439.921,-475 433.921,-475 433.921,-475 312.079,-475 312.079,-475 306.079,-475 300.079,-469 300.079,-463 300.079,-463 300.079,-313 300.079,-313 300.079,-307 306.079,-301 312.079,-301"/>
<text text-anchor="middle" x="373" y="-459.8" font-family="Times,serif" font-size="14.00">MaintenanceController</text>
<polyline fill="none" stroke="black" points="300.079,-453 445.921,-453 "/>
<text text-anchor="start" x="308.079" y="-437.8" font-family="Times,serif" font-size="14.00">foods_delete_all</text>
<text text-anchor="start" x="308.079" y="-423.8" font-family="Times,serif" font-size="14.00">foods_import</text>
<text text-anchor="start" x="308.079" y="-409.8" font-family="Times,serif" font-size="14.00">index</text>
<text text-anchor="start" x="308.079" y="-395.8" font-family="Times,serif" font-size="14.00">items_delete_all</text>
<text text-anchor="start" x="308.079" y="-381.8" font-family="Times,serif" font-size="14.00">items_import</text>
<text text-anchor="start" x="308.079" y="-367.8" font-family="Times,serif" font-size="14.00">pages_delete_all</text>
<text text-anchor="start" x="308.079" y="-353.8" font-family="Times,serif" font-size="14.00">pages_import</text>
<polyline fill="none" stroke="black" points="300.079,-347 445.921,-347 "/>
<polyline fill="none" stroke="black" points="300.079,-323 445.921,-323 "/>
<text text-anchor="start" x="308.079" y="-307.8" font-family="Times,serif" font-size="14.00">_layout</text>
</g>
<!-- ModesController -->
<g id="node13" class="node"><title>ModesController</title>
<path fill="none" stroke="black" d="M-387.828,-401C-387.828,-401 -300.172,-401 -300.172,-401 -294.172,-401 -288.172,-407 -288.172,-413 -288.172,-413 -288.172,-591 -288.172,-591 -288.172,-597 -294.172,-603 -300.172,-603 -300.172,-603 -387.828,-603 -387.828,-603 -393.828,-603 -399.828,-597 -399.828,-591 -399.828,-591 -399.828,-413 -399.828,-413 -399.828,-407 -393.828,-401 -387.828,-401"/>
<text text-anchor="middle" x="-344" y="-587.8" font-family="Times,serif" font-size="14.00">ModesController</text>
<polyline fill="none" stroke="black" points="-399.828,-581 -288.172,-581 "/>
<text text-anchor="start" x="-391.828" y="-565.8" font-family="Times,serif" font-size="14.00">create</text>
<text text-anchor="start" x="-391.828" y="-551.8" font-family="Times,serif" font-size="14.00">destroy</text>
<text text-anchor="start" x="-391.828" y="-537.8" font-family="Times,serif" font-size="14.00">edit</text>
<text text-anchor="start" x="-391.828" y="-523.8" font-family="Times,serif" font-size="14.00">index</text>
<text text-anchor="start" x="-391.828" y="-509.8" font-family="Times,serif" font-size="14.00">new</text>
<text text-anchor="start" x="-391.828" y="-495.8" font-family="Times,serif" font-size="14.00">show</text>
<text text-anchor="start" x="-391.828" y="-481.8" font-family="Times,serif" font-size="14.00">update</text>
<polyline fill="none" stroke="black" points="-399.828,-475 -288.172,-475 "/>
<polyline fill="none" stroke="black" points="-399.828,-451 -288.172,-451 "/>
<text text-anchor="start" x="-391.828" y="-435.8" font-family="Times,serif" font-size="14.00">_layout</text>
<text text-anchor="start" x="-391.828" y="-421.8" font-family="Times,serif" font-size="14.00">mode_params</text>
<text text-anchor="start" x="-391.828" y="-407.8" font-family="Times,serif" font-size="14.00">set_mode</text>
</g>
<!-- PageImagesController -->
<g id="node14" class="node"><title>PageImagesController</title>
<path fill="none" stroke="black" d="M132.407,-321C132.407,-321 249.593,-321 249.593,-321 255.593,-321 261.593,-327 261.593,-333 261.593,-333 261.593,-511 261.593,-511 261.593,-517 255.593,-523 249.593,-523 249.593,-523 132.407,-523 132.407,-523 126.407,-523 120.407,-517 120.407,-511 120.407,-511 120.407,-333 120.407,-333 120.407,-327 126.407,-321 132.407,-321"/>
<text text-anchor="middle" x="191" y="-507.8" font-family="Times,serif" font-size="14.00">PageImagesController</text>
<polyline fill="none" stroke="black" points="120.407,-501 261.593,-501 "/>
<polyline fill="none" stroke="black" points="120.407,-477 261.593,-477 "/>
<text text-anchor="start" x="128.407" y="-461.8" font-family="Times,serif" font-size="14.00">collection_path</text>
<text text-anchor="start" x="128.407" y="-447.8" font-family="Times,serif" font-size="14.00">collection_url</text>
<text text-anchor="start" x="128.407" y="-433.8" font-family="Times,serif" font-size="14.00">edit_resource_path</text>
<text text-anchor="start" x="128.407" y="-419.8" font-family="Times,serif" font-size="14.00">edit_resource_url</text>
<text text-anchor="start" x="128.407" y="-405.8" font-family="Times,serif" font-size="14.00">new_resource_path</text>
<text text-anchor="start" x="128.407" y="-391.8" font-family="Times,serif" font-size="14.00">new_resource_url</text>
<text text-anchor="start" x="128.407" y="-377.8" font-family="Times,serif" font-size="14.00">resource_path</text>
<text text-anchor="start" x="128.407" y="-363.8" font-family="Times,serif" font-size="14.00">resource_url</text>
<polyline fill="none" stroke="black" points="120.407,-357 261.593,-357 "/>
<text text-anchor="start" x="128.407" y="-341.8" font-family="Times,serif" font-size="14.00">_layout</text>
<text text-anchor="start" x="128.407" y="-327.8" font-family="Times,serif" font-size="14.00">page_image_params</text>
</g>
<!-- PagesController -->
<g id="node15" class="node"><title>PagesController</title>
<path fill="none" stroke="black" d="M-68.4209,219C-68.4209,219 32.4209,219 32.4209,219 38.4209,219 44.4209,213 44.4209,207 44.4209,207 44.4209,-193 44.4209,-193 44.4209,-199 38.4209,-205 32.4209,-205 32.4209,-205 -68.4209,-205 -68.4209,-205 -74.4209,-205 -80.4209,-199 -80.4209,-193 -80.4209,-193 -80.4209,207 -80.4209,207 -80.4209,213 -74.4209,219 -68.4209,219"/>
<text text-anchor="middle" x="-18" y="-189.8" font-family="Times,serif" font-size="14.00">PagesController</text>
<polyline fill="none" stroke="black" points="-80.4209,-183 44.4209,-183 "/>
<text text-anchor="start" x="-72.4209" y="-167.8" font-family="Times,serif" font-size="14.00">create</text>
<text text-anchor="start" x="-72.4209" y="-153.8" font-family="Times,serif" font-size="14.00">daily_chart</text>
<text text-anchor="start" x="-72.4209" y="-139.8" font-family="Times,serif" font-size="14.00">edit</text>
<text text-anchor="start" x="-72.4209" y="-125.8" font-family="Times,serif" font-size="14.00">hidden_training</text>
<text text-anchor="start" x="-72.4209" y="-111.8" font-family="Times,serif" font-size="14.00">import</text>
<text text-anchor="start" x="-72.4209" y="-97.8" font-family="Times,serif" font-size="14.00">index</text>
<text text-anchor="start" x="-72.4209" y="-83.8" font-family="Times,serif" font-size="14.00">index_logic</text>
<text text-anchor="start" x="-72.4209" y="-69.8" font-family="Times,serif" font-size="14.00">new</text>
<text text-anchor="start" x="-72.4209" y="-55.8" font-family="Times,serif" font-size="14.00">only_chart</text>
<text text-anchor="start" x="-72.4209" y="-41.8" font-family="Times,serif" font-size="14.00">show</text>
<text text-anchor="start" x="-72.4209" y="-27.8" font-family="Times,serif" font-size="14.00">show_index_init</text>
<text text-anchor="start" x="-72.4209" y="-13.8" font-family="Times,serif" font-size="14.00">training_only</text>
<text text-anchor="start" x="-72.4209" y="0.2" font-family="Times,serif" font-size="14.00">training_only_note</text>
<text text-anchor="start" x="-72.4209" y="14.2" font-family="Times,serif" font-size="14.00">update</text>
<polyline fill="none" stroke="black" points="-80.4209,21 44.4209,21 "/>
<text text-anchor="start" x="-72.4209" y="36.2" font-family="Times,serif" font-size="14.00">collection_path</text>
<text text-anchor="start" x="-72.4209" y="50.2" font-family="Times,serif" font-size="14.00">collection_url</text>
<text text-anchor="start" x="-72.4209" y="64.2" font-family="Times,serif" font-size="14.00">edit_resource_path</text>
<text text-anchor="start" x="-72.4209" y="78.2" font-family="Times,serif" font-size="14.00">edit_resource_url</text>
<text text-anchor="start" x="-72.4209" y="92.2" font-family="Times,serif" font-size="14.00">new_resource_path</text>
<text text-anchor="start" x="-72.4209" y="106.2" font-family="Times,serif" font-size="14.00">new_resource_url</text>
<text text-anchor="start" x="-72.4209" y="120.2" font-family="Times,serif" font-size="14.00">resource_path</text>
<text text-anchor="start" x="-72.4209" y="134.2" font-family="Times,serif" font-size="14.00">resource_url</text>
<polyline fill="none" stroke="black" points="-80.4209,141 44.4209,141 "/>
<text text-anchor="start" x="-72.4209" y="156.2" font-family="Times,serif" font-size="14.00">_layout</text>
<text text-anchor="start" x="-72.4209" y="170.2" font-family="Times,serif" font-size="14.00">copy_line_params</text>
<text text-anchor="start" x="-72.4209" y="184.2" font-family="Times,serif" font-size="14.00">copy_page_lines</text>
<text text-anchor="start" x="-72.4209" y="198.2" font-family="Times,serif" font-size="14.00">page_params</text>
<text text-anchor="start" x="-72.4209" y="212.2" font-family="Times,serif" font-size="14.00">send_image</text>
</g>
<!-- PartsController -->
<g id="node16" class="node"><title>PartsController</title>
<path fill="none" stroke="black" d="M-407.772,259C-407.772,259 -330.228,259 -330.228,259 -324.228,259 -318.228,253 -318.228,247 -318.228,247 -318.228,55 -318.228,55 -318.228,49 -324.228,43 -330.228,43 -330.228,43 -407.772,43 -407.772,43 -413.772,43 -419.772,49 -419.772,55 -419.772,55 -419.772,247 -419.772,247 -419.772,253 -413.772,259 -407.772,259"/>
<text text-anchor="middle" x="-369" y="58.2" font-family="Times,serif" font-size="14.00">PartsController</text>
<polyline fill="none" stroke="black" points="-419.772,65 -318.228,65 "/>
<text text-anchor="start" x="-411.772" y="80.2" font-family="Times,serif" font-size="14.00">create</text>
<text text-anchor="start" x="-411.772" y="94.2" font-family="Times,serif" font-size="14.00">destroy</text>
<text text-anchor="start" x="-411.772" y="108.2" font-family="Times,serif" font-size="14.00">edit</text>
<text text-anchor="start" x="-411.772" y="122.2" font-family="Times,serif" font-size="14.00">index</text>
<text text-anchor="start" x="-411.772" y="136.2" font-family="Times,serif" font-size="14.00">new</text>
<text text-anchor="start" x="-411.772" y="150.2" font-family="Times,serif" font-size="14.00">search</text>
<text text-anchor="start" x="-411.772" y="164.2" font-family="Times,serif" font-size="14.00">show</text>
<text text-anchor="start" x="-411.772" y="178.2" font-family="Times,serif" font-size="14.00">update</text>
<polyline fill="none" stroke="black" points="-419.772,185 -318.228,185 "/>
<polyline fill="none" stroke="black" points="-419.772,209 -318.228,209 "/>
<text text-anchor="start" x="-411.772" y="224.2" font-family="Times,serif" font-size="14.00">_layout</text>
<text text-anchor="start" x="-411.772" y="238.2" font-family="Times,serif" font-size="14.00">part_params</text>
<text text-anchor="start" x="-411.772" y="252.2" font-family="Times,serif" font-size="14.00">set_part</text>
</g>
<!-- TrainingsController -->
<g id="node17" class="node"><title>TrainingsController</title>
<path fill="none" stroke="black" d="M-68.3574,-241C-68.3574,-241 34.3574,-241 34.3574,-241 40.3574,-241 46.3574,-247 46.3574,-253 46.3574,-253 46.3574,-431 46.3574,-431 46.3574,-437 40.3574,-443 34.3574,-443 34.3574,-443 -68.3574,-443 -68.3574,-443 -74.3574,-443 -80.3574,-437 -80.3574,-431 -80.3574,-431 -80.3574,-253 -80.3574,-253 -80.3574,-247 -74.3574,-241 -68.3574,-241"/>
<text text-anchor="middle" x="-17" y="-427.8" font-family="Times,serif" font-size="14.00">TrainingsController</text>
<polyline fill="none" stroke="black" points="-80.3574,-421 46.3574,-421 "/>
<text text-anchor="start" x="-72.3574" y="-405.8" font-family="Times,serif" font-size="14.00">create</text>
<text text-anchor="start" x="-72.3574" y="-391.8" font-family="Times,serif" font-size="14.00">destroy</text>
<text text-anchor="start" x="-72.3574" y="-377.8" font-family="Times,serif" font-size="14.00">edit</text>
<text text-anchor="start" x="-72.3574" y="-363.8" font-family="Times,serif" font-size="14.00">index</text>
<text text-anchor="start" x="-72.3574" y="-349.8" font-family="Times,serif" font-size="14.00">new</text>
<text text-anchor="start" x="-72.3574" y="-335.8" font-family="Times,serif" font-size="14.00">show</text>
<text text-anchor="start" x="-72.3574" y="-321.8" font-family="Times,serif" font-size="14.00">update</text>
<polyline fill="none" stroke="black" points="-80.3574,-315 46.3574,-315 "/>
<polyline fill="none" stroke="black" points="-80.3574,-291 46.3574,-291 "/>
<text text-anchor="start" x="-72.3574" y="-275.8" font-family="Times,serif" font-size="14.00">_layout</text>
<text text-anchor="start" x="-72.3574" y="-261.8" font-family="Times,serif" font-size="14.00">set_training</text>
<text text-anchor="start" x="-72.3574" y="-247.8" font-family="Times,serif" font-size="14.00">training_params</text>
</g>
<!-- UsersController -->
<g id="node18" class="node"><title>UsersController</title>
<path fill="none" stroke="black" d="M251.579,239C251.579,239 352.421,239 352.421,239 358.421,239 364.421,233 364.421,227 364.421,227 364.421,9 364.421,9 364.421,3 358.421,-3 352.421,-3 352.421,-3 251.579,-3 251.579,-3 245.579,-3 239.579,3 239.579,9 239.579,9 239.579,227 239.579,227 239.579,233 245.579,239 251.579,239"/>
<text text-anchor="middle" x="302" y="12.2" font-family="Times,serif" font-size="14.00">UsersController</text>
<polyline fill="none" stroke="black" points="239.579,19 364.421,19 "/>
<text text-anchor="start" x="247.579" y="34.2" font-family="Times,serif" font-size="14.00">create</text>
<text text-anchor="start" x="247.579" y="48.2" font-family="Times,serif" font-size="14.00">destroy</text>
<text text-anchor="start" x="247.579" y="62.2" font-family="Times,serif" font-size="14.00">show</text>
<text text-anchor="start" x="247.579" y="76.2" font-family="Times,serif" font-size="14.00">sign_in</text>
<polyline fill="none" stroke="black" points="239.579,83 364.421,83 "/>
<text text-anchor="start" x="247.579" y="98.2" font-family="Times,serif" font-size="14.00">collection_path</text>
<text text-anchor="start" x="247.579" y="112.2" font-family="Times,serif" font-size="14.00">collection_url</text>
<text text-anchor="start" x="247.579" y="126.2" font-family="Times,serif" font-size="14.00">edit_resource_path</text>
<text text-anchor="start" x="247.579" y="140.2" font-family="Times,serif" font-size="14.00">edit_resource_url</text>
<text text-anchor="start" x="247.579" y="154.2" font-family="Times,serif" font-size="14.00">new_resource_path</text>
<text text-anchor="start" x="247.579" y="168.2" font-family="Times,serif" font-size="14.00">new_resource_url</text>
<text text-anchor="start" x="247.579" y="182.2" font-family="Times,serif" font-size="14.00">resource_path</text>
<text text-anchor="start" x="247.579" y="196.2" font-family="Times,serif" font-size="14.00">resource_url</text>
<polyline fill="none" stroke="black" points="239.579,203 364.421,203 "/>
<text text-anchor="start" x="247.579" y="218.2" font-family="Times,serif" font-size="14.00">_layout</text>
<text text-anchor="start" x="247.579" y="232.2" font-family="Times,serif" font-size="14.00">user_params</text>
</g>
<!-- WelcomeController -->
<g id="node19" class="node"><title>WelcomeController</title>
<path fill="none" stroke="black" d="M411.845,159C411.845,159 518.155,159 518.155,159 524.155,159 530.155,153 530.155,147 530.155,147 530.155,11 530.155,11 530.155,5 524.155,-1 518.155,-1 518.155,-1 411.845,-1 411.845,-1 405.845,-1 399.845,5 399.845,11 399.845,11 399.845,147 399.845,147 399.845,153 405.845,159 411.845,159"/>
<text text-anchor="middle" x="465" y="14.2" font-family="Times,serif" font-size="14.00">WelcomeController</text>
<polyline fill="none" stroke="black" points="399.845,21 530.155,21 "/>
<text text-anchor="start" x="407.845" y="36.2" font-family="Times,serif" font-size="14.00">about</text>
<text text-anchor="start" x="407.845" y="50.2" font-family="Times,serif" font-size="14.00">developer</text>
<text text-anchor="start" x="407.845" y="64.2" font-family="Times,serif" font-size="14.00">get_chart_gym</text>
<text text-anchor="start" x="407.845" y="78.2" font-family="Times,serif" font-size="14.00">get_greeting</text>
<text text-anchor="start" x="407.845" y="92.2" font-family="Times,serif" font-size="14.00">index</text>
<text text-anchor="start" x="407.845" y="106.2" font-family="Times,serif" font-size="14.00">latest_page_finished</text>
<polyline fill="none" stroke="black" points="399.845,113 530.155,113 "/>
<polyline fill="none" stroke="black" points="399.845,137 530.155,137 "/>
<text text-anchor="start" x="407.845" y="152.2" font-family="Times,serif" font-size="14.00">_layout</text>
</g>
</g>
</svg>
