<?xml version="1.0" encoding="UTF-8" standalone="no"?>
<!DOCTYPE svg PUBLIC "-//W3C//DTD SVG 1.1//EN"
 "http://www.w3.org/Graphics/SVG/1.1/DTD/svg11.dtd">
<!-- Generated by graphviz version 2.38.0 (20140413.2041)
 -->
<!-- Title: models_diagram Pages: 1 -->
<svg width="3442pt" height="1436pt"
 viewBox="0.00 0.00 3441.66 1436.00" xmlns="http://www.w3.org/2000/svg" xmlns:xlink="http://www.w3.org/1999/xlink">
<g id="graph0" class="graph" transform="scale(1 1) rotate(0) translate(4 1432)">
<title>models_diagram</title>
<polygon fill="none" stroke="none" points="-4,4 -4,-1432 3437.66,-1432 3437.66,4 -4,4"/>
<!-- _diagram_info -->
<g id="node1" class="node"><title>_diagram_info</title>
<text text-anchor="start" x="8" y="-1035.6" font-family="Times,serif" font-size="13.00">Models diagram</text>
<text text-anchor="start" x="8" y="-1022.6" font-family="Times,serif" font-size="13.00">Date: Jun 02 2016 &#45; 19:55</text>
<text text-anchor="start" x="8" y="-1009.6" font-family="Times,serif" font-size="13.00">Migration version: 20160520124020</text>
<text text-anchor="start" x="8" y="-996.6" font-family="Times,serif" font-size="13.00">Generated by RailRoady 1.4.2</text>
<text text-anchor="start" x="8" y="-983.6" font-family="Times,serif" font-size="13.00">http://railroady.prestonlee.com</text>
</g>
<!-- Condition -->
<g id="node2" class="node"><title>Condition</title>
<path fill="none" stroke="black" d="M237.825,-956.5C237.825,-956.5 461.55,-956.5 461.55,-956.5 467.55,-956.5 473.55,-962.5 473.55,-968.5 473.55,-968.5 473.55,-1058.5 473.55,-1058.5 473.55,-1064.5 467.55,-1070.5 461.55,-1070.5 461.55,-1070.5 237.825,-1070.5 237.825,-1070.5 231.825,-1070.5 225.825,-1064.5 225.825,-1058.5 225.825,-1058.5 225.825,-968.5 225.825,-968.5 225.825,-962.5 231.825,-956.5 237.825,-956.5"/>
<text text-anchor="middle" x="349.688" y="-1055.3" font-family="Times,serif" font-size="14.00">Condition</text>
<polyline fill="none" stroke="black" points="225.825,-1048.5 473.55,-1048.5 "/>
<text text-anchor="start" x="233.825" y="-1033.3" font-family="Times,serif" font-size="14.00">id :integer</text>
<text text-anchor="start" x="233.825" y="-1019.3" font-family="Times,serif" font-size="14.00">name :character varying</text>
<text text-anchor="start" x="233.825" y="-1005.3" font-family="Times,serif" font-size="14.00">score :double precision</text>
<text text-anchor="start" x="233.825" y="-991.3" font-family="Times,serif" font-size="14.00">memo :character varying</text>
<text text-anchor="start" x="233.825" y="-977.3" font-family="Times,serif" font-size="14.00">created_at :timestamp without time zone</text>
<text text-anchor="start" x="233.825" y="-963.3" font-family="Times,serif" font-size="14.00">updated_at :timestamp without time zone</text>
</g>
<!-- Diet -->
<g id="node3" class="node"><title>Diet</title>
<path fill="none" stroke="black" d="M503.825,-970.5C503.825,-970.5 727.55,-970.5 727.55,-970.5 733.55,-970.5 739.55,-976.5 739.55,-982.5 739.55,-982.5 739.55,-1044.5 739.55,-1044.5 739.55,-1050.5 733.55,-1056.5 727.55,-1056.5 727.55,-1056.5 503.825,-1056.5 503.825,-1056.5 497.825,-1056.5 491.825,-1050.5 491.825,-1044.5 491.825,-1044.5 491.825,-982.5 491.825,-982.5 491.825,-976.5 497.825,-970.5 503.825,-970.5"/>
<text text-anchor="middle" x="615.688" y="-1041.3" font-family="Times,serif" font-size="14.00">Diet</text>
<polyline fill="none" stroke="black" points="491.825,-1034.5 739.55,-1034.5 "/>
<text text-anchor="start" x="499.825" y="-1019.3" font-family="Times,serif" font-size="14.00">id :integer</text>
<text text-anchor="start" x="499.825" y="-1005.3" font-family="Times,serif" font-size="14.00">name :character varying</text>
<text text-anchor="start" x="499.825" y="-991.3" font-family="Times,serif" font-size="14.00">created_at :timestamp without time zone</text>
<text text-anchor="start" x="499.825" y="-977.3" font-family="Times,serif" font-size="14.00">updated_at :timestamp without time zone</text>
</g>
<!-- Equipment -->
<g id="node4" class="node"><title>Equipment</title>
<path fill="none" stroke="black" d="M769.825,-970.5C769.825,-970.5 993.55,-970.5 993.55,-970.5 999.55,-970.5 1005.55,-976.5 1005.55,-982.5 1005.55,-982.5 1005.55,-1044.5 1005.55,-1044.5 1005.55,-1050.5 999.55,-1056.5 993.55,-1056.5 993.55,-1056.5 769.825,-1056.5 769.825,-1056.5 763.825,-1056.5 757.825,-1050.5 757.825,-1044.5 757.825,-1044.5 757.825,-982.5 757.825,-982.5 757.825,-976.5 763.825,-970.5 769.825,-970.5"/>
<text text-anchor="middle" x="881.688" y="-1041.3" font-family="Times,serif" font-size="14.00">Equipment</text>
<polyline fill="none" stroke="black" points="757.825,-1034.5 1005.55,-1034.5 "/>
<text text-anchor="start" x="765.825" y="-1019.3" font-family="Times,serif" font-size="14.00">id :integer</text>
<text text-anchor="start" x="765.825" y="-1005.3" font-family="Times,serif" font-size="14.00">name :character varying</text>
<text text-anchor="start" x="765.825" y="-991.3" font-family="Times,serif" font-size="14.00">created_at :timestamp without time zone</text>
<text text-anchor="start" x="765.825" y="-977.3" font-family="Times,serif" font-size="14.00">updated_at :timestamp without time zone</text>
</g>
<!-- Feeling -->
<g id="node5" class="node"><title>Feeling</title>
<path fill="none" stroke="black" d="M1035.83,-956.5C1035.83,-956.5 1259.55,-956.5 1259.55,-956.5 1265.55,-956.5 1271.55,-962.5 1271.55,-968.5 1271.55,-968.5 1271.55,-1058.5 1271.55,-1058.5 1271.55,-1064.5 1265.55,-1070.5 1259.55,-1070.5 1259.55,-1070.5 1035.83,-1070.5 1035.83,-1070.5 1029.83,-1070.5 1023.83,-1064.5 1023.83,-1058.5 1023.83,-1058.5 1023.83,-968.5 1023.83,-968.5 1023.83,-962.5 1029.83,-956.5 1035.83,-956.5"/>
<text text-anchor="middle" x="1147.69" y="-1055.3" font-family="Times,serif" font-size="14.00">Feeling</text>
<polyline fill="none" stroke="black" points="1023.83,-1048.5 1271.55,-1048.5 "/>
<text text-anchor="start" x="1031.83" y="-1033.3" font-family="Times,serif" font-size="14.00">id :integer</text>
<text text-anchor="start" x="1031.83" y="-1019.3" font-family="Times,serif" font-size="14.00">name :character varying</text>
<text text-anchor="start" x="1031.83" y="-1005.3" font-family="Times,serif" font-size="14.00">score :double precision</text>
<text text-anchor="start" x="1031.83" y="-991.3" font-family="Times,serif" font-size="14.00">memo :character varying</text>
<text text-anchor="start" x="1031.83" y="-977.3" font-family="Times,serif" font-size="14.00">created_at :timestamp without time zone</text>
<text text-anchor="start" x="1031.83" y="-963.3" font-family="Times,serif" font-size="14.00">updated_at :timestamp without time zone</text>
</g>
<!-- Food -->
<g id="node6" class="node"><title>Food</title>
<path fill="none" stroke="black" d="M1301.83,-907.5C1301.83,-907.5 1525.55,-907.5 1525.55,-907.5 1531.55,-907.5 1537.55,-913.5 1537.55,-919.5 1537.55,-919.5 1537.55,-1107.5 1537.55,-1107.5 1537.55,-1113.5 1531.55,-1119.5 1525.55,-1119.5 1525.55,-1119.5 1301.83,-1119.5 1301.83,-1119.5 1295.83,-1119.5 1289.83,-1113.5 1289.83,-1107.5 1289.83,-1107.5 1289.83,-919.5 1289.83,-919.5 1289.83,-913.5 1295.83,-907.5 1301.83,-907.5"/>
<text text-anchor="middle" x="1413.69" y="-1104.3" font-family="Times,serif" font-size="14.00">Food</text>
<polyline fill="none" stroke="black" points="1289.83,-1097.5 1537.55,-1097.5 "/>
<text text-anchor="start" x="1297.83" y="-1082.3" font-family="Times,serif" font-size="14.00">id :integer</text>
<text text-anchor="start" x="1297.83" y="-1068.3" font-family="Times,serif" font-size="14.00">name :character varying</text>
<text text-anchor="start" x="1297.83" y="-1054.3" font-family="Times,serif" font-size="14.00">diet_id :integer</text>
<text text-anchor="start" x="1297.83" y="-1040.3" font-family="Times,serif" font-size="14.00">calorie :double precision</text>
<text text-anchor="start" x="1297.83" y="-1026.3" font-family="Times,serif" font-size="14.00">carbohydrate :double precision</text>
<text text-anchor="start" x="1297.83" y="-1012.3" font-family="Times,serif" font-size="14.00">fat :double precision</text>
<text text-anchor="start" x="1297.83" y="-998.3" font-family="Times,serif" font-size="14.00">protein :double precision</text>
<text text-anchor="start" x="1297.83" y="-984.3" font-family="Times,serif" font-size="14.00">vegetable :double precision</text>
<text text-anchor="start" x="1297.83" y="-970.3" font-family="Times,serif" font-size="14.00">diet_memo :character varying</text>
<text text-anchor="start" x="1297.83" y="-956.3" font-family="Times,serif" font-size="14.00">created_at :timestamp without time zone</text>
<text text-anchor="start" x="1297.83" y="-942.3" font-family="Times,serif" font-size="14.00">updated_at :timestamp without time zone</text>
<text text-anchor="start" x="1297.83" y="-928.3" font-family="Times,serif" font-size="14.00">food_category_id :integer</text>
<text text-anchor="start" x="1297.83" y="-914.3" font-family="Times,serif" font-size="14.00">sort_key :character varying</text>
</g>
<!-- FoodCategory -->
<g id="node7" class="node"><title>FoodCategory</title>
<path fill="none" stroke="black" d="M1567.83,-956.5C1567.83,-956.5 1791.55,-956.5 1791.55,-956.5 1797.55,-956.5 1803.55,-962.5 1803.55,-968.5 1803.55,-968.5 1803.55,-1058.5 1803.55,-1058.5 1803.55,-1064.5 1797.55,-1070.5 1791.55,-1070.5 1791.55,-1070.5 1567.83,-1070.5 1567.83,-1070.5 1561.83,-1070.5 1555.83,-1064.5 1555.83,-1058.5 1555.83,-1058.5 1555.83,-968.5 1555.83,-968.5 1555.83,-962.5 1561.83,-956.5 1567.83,-956.5"/>
<text text-anchor="middle" x="1679.69" y="-1055.3" font-family="Times,serif" font-size="14.00">FoodCategory</text>
<polyline fill="none" stroke="black" points="1555.83,-1048.5 1803.55,-1048.5 "/>
<text text-anchor="start" x="1563.83" y="-1033.3" font-family="Times,serif" font-size="14.00">id :integer</text>
<text text-anchor="start" x="1563.83" y="-1019.3" font-family="Times,serif" font-size="14.00">name :character varying</text>
<text text-anchor="start" x="1563.83" y="-1005.3" font-family="Times,serif" font-size="14.00">no :integer</text>
<text text-anchor="start" x="1563.83" y="-991.3" font-family="Times,serif" font-size="14.00">order :integer</text>
<text text-anchor="start" x="1563.83" y="-977.3" font-family="Times,serif" font-size="14.00">created_at :timestamp without time zone</text>
<text text-anchor="start" x="1563.83" y="-963.3" font-family="Times,serif" font-size="14.00">updated_at :timestamp without time zone</text>
</g>
<!-- Item -->
<g id="node8" class="node"><title>Item</title>
<path fill="none" stroke="black" d="M1833.83,-942.5C1833.83,-942.5 2057.55,-942.5 2057.55,-942.5 2063.55,-942.5 2069.55,-948.5 2069.55,-954.5 2069.55,-954.5 2069.55,-1072.5 2069.55,-1072.5 2069.55,-1078.5 2063.55,-1084.5 2057.55,-1084.5 2057.55,-1084.5 1833.83,-1084.5 1833.83,-1084.5 1827.83,-1084.5 1821.83,-1078.5 1821.83,-1072.5 1821.83,-1072.5 1821.83,-954.5 1821.83,-954.5 1821.83,-948.5 1827.83,-942.5 1833.83,-942.5"/>
<text text-anchor="middle" x="1945.69" y="-1069.3" font-family="Times,serif" font-size="14.00">Item</text>
<polyline fill="none" stroke="black" points="1821.83,-1062.5 2069.55,-1062.5 "/>
<text text-anchor="start" x="1829.83" y="-1047.3" font-family="Times,serif" font-size="14.00">id :integer</text>
<text text-anchor="start" x="1829.83" y="-1033.3" font-family="Times,serif" font-size="14.00">name :character varying</text>
<text text-anchor="start" x="1829.83" y="-1019.3" font-family="Times,serif" font-size="14.00">reps :integer</text>
<text text-anchor="start" x="1829.83" y="-1005.3" font-family="Times,serif" font-size="14.00">part_id :integer</text>
<text text-anchor="start" x="1829.83" y="-991.3" font-family="Times,serif" font-size="14.00">mode_id :integer</text>
<text text-anchor="start" x="1829.83" y="-977.3" font-family="Times,serif" font-size="14.00">equipment_id :integer</text>
<text text-anchor="start" x="1829.83" y="-963.3" font-family="Times,serif" font-size="14.00">created_at :timestamp without time zone</text>
<text text-anchor="start" x="1829.83" y="-949.3" font-family="Times,serif" font-size="14.00">updated_at :timestamp without time zone</text>
</g>
<!-- Line -->
<g id="node9" class="node"><title>Line</title>
<path fill="none" stroke="black" d="M1966.83,-0.5C1966.83,-0.5 2190.55,-0.5 2190.55,-0.5 2196.55,-0.5 2202.55,-6.5 2202.55,-12.5 2202.55,-12.5 2202.55,-536.5 2202.55,-536.5 2202.55,-542.5 2196.55,-548.5 2190.55,-548.5 2190.55,-548.5 1966.83,-548.5 1966.83,-548.5 1960.83,-548.5 1954.83,-542.5 1954.83,-536.5 1954.83,-536.5 1954.83,-12.5 1954.83,-12.5 1954.83,-6.5 1960.83,-0.5 1966.83,-0.5"/>
<text text-anchor="middle" x="2078.69" y="-533.3" font-family="Times,serif" font-size="14.00">Line</text>
<polyline fill="none" stroke="black" points="1954.83,-526.5 2202.55,-526.5 "/>
<text text-anchor="start" x="1962.83" y="-511.3" font-family="Times,serif" font-size="14.00">id :integer</text>
<text text-anchor="start" x="1962.83" y="-497.3" font-family="Times,serif" font-size="14.00">page_id :integer</text>
<text text-anchor="start" x="1962.83" y="-483.3" font-family="Times,serif" font-size="14.00">no :integer</text>
<text text-anchor="start" x="1962.83" y="-469.3" font-family="Times,serif" font-size="14.00">item_id :integer</text>
<text text-anchor="start" x="1962.83" y="-455.3" font-family="Times,serif" font-size="14.00">mode_id :integer</text>
<text text-anchor="start" x="1962.83" y="-441.3" font-family="Times,serif" font-size="14.00">weight_1 :numeric</text>
<text text-anchor="start" x="1962.83" y="-427.3" font-family="Times,serif" font-size="14.00">reps_1 :numeric</text>
<text text-anchor="start" x="1962.83" y="-413.3" font-family="Times,serif" font-size="14.00">memo_1 :character varying</text>
<text text-anchor="start" x="1962.83" y="-399.3" font-family="Times,serif" font-size="14.00">weight_2 :numeric</text>
<text text-anchor="start" x="1962.83" y="-385.3" font-family="Times,serif" font-size="14.00">reps_2 :numeric</text>
<text text-anchor="start" x="1962.83" y="-371.3" font-family="Times,serif" font-size="14.00">memo_2 :character varying</text>
<text text-anchor="start" x="1962.83" y="-357.3" font-family="Times,serif" font-size="14.00">weight_3 :numeric</text>
<text text-anchor="start" x="1962.83" y="-343.3" font-family="Times,serif" font-size="14.00">reps_3 :numeric</text>
<text text-anchor="start" x="1962.83" y="-329.3" font-family="Times,serif" font-size="14.00">memo_3 :character varying</text>
<text text-anchor="start" x="1962.83" y="-315.3" font-family="Times,serif" font-size="14.00">weight_4 :numeric</text>
<text text-anchor="start" x="1962.83" y="-301.3" font-family="Times,serif" font-size="14.00">reps_4 :numeric</text>
<text text-anchor="start" x="1962.83" y="-287.3" font-family="Times,serif" font-size="14.00">memo_4 :character varying</text>
<text text-anchor="start" x="1962.83" y="-273.3" font-family="Times,serif" font-size="14.00">weight_5 :numeric</text>
<text text-anchor="start" x="1962.83" y="-259.3" font-family="Times,serif" font-size="14.00">reps_5 :numeric</text>
<text text-anchor="start" x="1962.83" y="-245.3" font-family="Times,serif" font-size="14.00">memo_5 :character varying</text>
<text text-anchor="start" x="1962.83" y="-231.3" font-family="Times,serif" font-size="14.00">weight_6 :numeric</text>
<text text-anchor="start" x="1962.83" y="-217.3" font-family="Times,serif" font-size="14.00">reps_6 :numeric</text>
<text text-anchor="start" x="1962.83" y="-203.3" font-family="Times,serif" font-size="14.00">memo_6 :character varying</text>
<text text-anchor="start" x="1962.83" y="-189.3" font-family="Times,serif" font-size="14.00">weight_7 :numeric</text>
<text text-anchor="start" x="1962.83" y="-175.3" font-family="Times,serif" font-size="14.00">reps_7 :numeric</text>
<text text-anchor="start" x="1962.83" y="-161.3" font-family="Times,serif" font-size="14.00">memo_7 :character varying</text>
<text text-anchor="start" x="1962.83" y="-147.3" font-family="Times,serif" font-size="14.00">weight_8 :numeric</text>
<text text-anchor="start" x="1962.83" y="-133.3" font-family="Times,serif" font-size="14.00">reps_8 :numeric</text>
<text text-anchor="start" x="1962.83" y="-119.3" font-family="Times,serif" font-size="14.00">memo_8 :character varying</text>
<text text-anchor="start" x="1962.83" y="-105.3" font-family="Times,serif" font-size="14.00">weight_9 :numeric</text>
<text text-anchor="start" x="1962.83" y="-91.3" font-family="Times,serif" font-size="14.00">reps_9 :numeric</text>
<text text-anchor="start" x="1962.83" y="-77.3" font-family="Times,serif" font-size="14.00">memo_9 :character varying</text>
<text text-anchor="start" x="1962.83" y="-63.3" font-family="Times,serif" font-size="14.00">weight_0 :numeric</text>
<text text-anchor="start" x="1962.83" y="-49.3" font-family="Times,serif" font-size="14.00">reps_0 :numeric</text>
<text text-anchor="start" x="1962.83" y="-35.3" font-family="Times,serif" font-size="14.00">memo_0 :character varying</text>
<text text-anchor="start" x="1962.83" y="-21.3" font-family="Times,serif" font-size="14.00">created_at :timestamp without time zone</text>
<text text-anchor="start" x="1962.83" y="-7.3" font-family="Times,serif" font-size="14.00">updated_at :timestamp without time zone</text>
</g>
<!-- Mode -->
<g id="node10" class="node"><title>Mode</title>
<path fill="none" stroke="black" d="M2365.83,-963.5C2365.83,-963.5 2589.55,-963.5 2589.55,-963.5 2595.55,-963.5 2601.55,-969.5 2601.55,-975.5 2601.55,-975.5 2601.55,-1051.5 2601.55,-1051.5 2601.55,-1057.5 2595.55,-1063.5 2589.55,-1063.5 2589.55,-1063.5 2365.83,-1063.5 2365.83,-1063.5 2359.83,-1063.5 2353.83,-1057.5 2353.83,-1051.5 2353.83,-1051.5 2353.83,-975.5 2353.83,-975.5 2353.83,-969.5 2359.83,-963.5 2365.83,-963.5"/>
<text text-anchor="middle" x="2477.69" y="-1048.3" font-family="Times,serif" font-size="14.00">Mode</text>
<polyline fill="none" stroke="black" points="2353.83,-1041.5 2601.55,-1041.5 "/>
<text text-anchor="start" x="2361.83" y="-1026.3" font-family="Times,serif" font-size="14.00">id :integer</text>
<text text-anchor="start" x="2361.83" y="-1012.3" font-family="Times,serif" font-size="14.00">name :character varying</text>
<text text-anchor="start" x="2361.83" y="-998.3" font-family="Times,serif" font-size="14.00">detail :character varying</text>
<text text-anchor="start" x="2361.83" y="-984.3" font-family="Times,serif" font-size="14.00">created_at :timestamp without time zone</text>
<text text-anchor="start" x="2361.83" y="-970.3" font-family="Times,serif" font-size="14.00">updated_at :timestamp without time zone</text>
</g>
<!-- Page -->
<g id="node11" class="node"><title>Page</title>
<path fill="none" stroke="black" d="M2099.83,-599.5C2099.83,-599.5 2323.55,-599.5 2323.55,-599.5 2329.55,-599.5 2335.55,-605.5 2335.55,-611.5 2335.55,-611.5 2335.55,-1415.5 2335.55,-1415.5 2335.55,-1421.5 2329.55,-1427.5 2323.55,-1427.5 2323.55,-1427.5 2099.83,-1427.5 2099.83,-1427.5 2093.83,-1427.5 2087.83,-1421.5 2087.83,-1415.5 2087.83,-1415.5 2087.83,-611.5 2087.83,-611.5 2087.83,-605.5 2093.83,-599.5 2099.83,-599.5"/>
<text text-anchor="middle" x="2211.69" y="-1412.3" font-family="Times,serif" font-size="14.00">Page</text>
<polyline fill="none" stroke="black" points="2087.83,-1405.5 2335.55,-1405.5 "/>
<text text-anchor="start" x="2095.83" y="-1390.3" font-family="Times,serif" font-size="14.00">id :integer</text>
<text text-anchor="start" x="2095.83" y="-1376.3" font-family="Times,serif" font-size="14.00">date :date</text>
<text text-anchor="start" x="2095.83" y="-1362.3" font-family="Times,serif" font-size="14.00">place :character varying</text>
<text text-anchor="start" x="2095.83" y="-1348.3" font-family="Times,serif" font-size="14.00">start_time :time without time zone</text>
<text text-anchor="start" x="2095.83" y="-1334.3" font-family="Times,serif" font-size="14.00">end_time :time without time zone</text>
<text text-anchor="start" x="2095.83" y="-1320.3" font-family="Times,serif" font-size="14.00">memo :text</text>
<text text-anchor="start" x="2095.83" y="-1306.3" font-family="Times,serif" font-size="14.00">created_at :timestamp without time zone</text>
<text text-anchor="start" x="2095.83" y="-1292.3" font-family="Times,serif" font-size="14.00">updated_at :timestamp without time zone</text>
<text text-anchor="start" x="2095.83" y="-1278.3" font-family="Times,serif" font-size="14.00">diet_id :integer</text>
<text text-anchor="start" x="2095.83" y="-1264.3" font-family="Times,serif" font-size="14.00">carbohydrate_1 :double precision</text>
<text text-anchor="start" x="2095.83" y="-1250.3" font-family="Times,serif" font-size="14.00">fat_1 :double precision</text>
<text text-anchor="start" x="2095.83" y="-1236.3" font-family="Times,serif" font-size="14.00">protein_1 :double precision</text>
<text text-anchor="start" x="2095.83" y="-1222.3" font-family="Times,serif" font-size="14.00">vegetable_1 :double precision</text>
<text text-anchor="start" x="2095.83" y="-1208.3" font-family="Times,serif" font-size="14.00">diet_memo_1 :character varying</text>
<text text-anchor="start" x="2095.83" y="-1194.3" font-family="Times,serif" font-size="14.00">carbohydrate_2 :double precision</text>
<text text-anchor="start" x="2095.83" y="-1180.3" font-family="Times,serif" font-size="14.00">fat_2 :double precision</text>
<text text-anchor="start" x="2095.83" y="-1166.3" font-family="Times,serif" font-size="14.00">protein_2 :double precision</text>
<text text-anchor="start" x="2095.83" y="-1152.3" font-family="Times,serif" font-size="14.00">vegetable_2 :double precision</text>
<text text-anchor="start" x="2095.83" y="-1138.3" font-family="Times,serif" font-size="14.00">diet_memo_2 :character varying</text>
<text text-anchor="start" x="2095.83" y="-1124.3" font-family="Times,serif" font-size="14.00">carbohydrate_3 :double precision</text>
<text text-anchor="start" x="2095.83" y="-1110.3" font-family="Times,serif" font-size="14.00">fat_3 :double precision</text>
<text text-anchor="start" x="2095.83" y="-1096.3" font-family="Times,serif" font-size="14.00">protein_3 :double precision</text>
<text text-anchor="start" x="2095.83" y="-1082.3" font-family="Times,serif" font-size="14.00">vegetable_3 :double precision</text>
<text text-anchor="start" x="2095.83" y="-1068.3" font-family="Times,serif" font-size="14.00">diet_memo_3 :character varying</text>
<text text-anchor="start" x="2095.83" y="-1054.3" font-family="Times,serif" font-size="14.00">carbohydrate_4 :double precision</text>
<text text-anchor="start" x="2095.83" y="-1040.3" font-family="Times,serif" font-size="14.00">fat_4 :double precision</text>
<text text-anchor="start" x="2095.83" y="-1026.3" font-family="Times,serif" font-size="14.00">protein_4 :double precision</text>
<text text-anchor="start" x="2095.83" y="-1012.3" font-family="Times,serif" font-size="14.00">vegetable_4 :double precision</text>
<text text-anchor="start" x="2095.83" y="-998.3" font-family="Times,serif" font-size="14.00">diet_memo_4 :character varying</text>
<text text-anchor="start" x="2095.83" y="-984.3" font-family="Times,serif" font-size="14.00">carbohydrate_5 :double precision</text>
<text text-anchor="start" x="2095.83" y="-970.3" font-family="Times,serif" font-size="14.00">fat_5 :double precision</text>
<text text-anchor="start" x="2095.83" y="-956.3" font-family="Times,serif" font-size="14.00">protein_5 :double precision</text>
<text text-anchor="start" x="2095.83" y="-942.3" font-family="Times,serif" font-size="14.00">vegetable_5 :double precision</text>
<text text-anchor="start" x="2095.83" y="-928.3" font-family="Times,serif" font-size="14.00">diet_memo_5 :character varying</text>
<text text-anchor="start" x="2095.83" y="-914.3" font-family="Times,serif" font-size="14.00">condition_id :integer</text>
<text text-anchor="start" x="2095.83" y="-900.3" font-family="Times,serif" font-size="14.00">feeling_id :integer</text>
<text text-anchor="start" x="2095.83" y="-886.3" font-family="Times,serif" font-size="14.00">sleep_hour :double precision</text>
<text text-anchor="start" x="2095.83" y="-872.3" font-family="Times,serif" font-size="14.00">sleep_time :time without time zone</text>
<text text-anchor="start" x="2095.83" y="-858.3" font-family="Times,serif" font-size="14.00">water :double precision</text>
<text text-anchor="start" x="2095.83" y="-844.3" font-family="Times,serif" font-size="14.00">alcohol :double precision</text>
<text text-anchor="start" x="2095.83" y="-830.3" font-family="Times,serif" font-size="14.00">caffeine :double precision</text>
<text text-anchor="start" x="2095.83" y="-816.3" font-family="Times,serif" font-size="14.00">wight :double precision</text>
<text text-anchor="start" x="2095.83" y="-802.3" font-family="Times,serif" font-size="14.00">work_hour :double precision</text>
<text text-anchor="start" x="2095.83" y="-788.3" font-family="Times,serif" font-size="14.00">study_hour :double precision</text>
<text text-anchor="start" x="2095.83" y="-774.3" font-family="Times,serif" font-size="14.00">tv_hour :double precision</text>
<text text-anchor="start" x="2095.83" y="-760.3" font-family="Times,serif" font-size="14.00">training_hour :double precision</text>
<text text-anchor="start" x="2095.83" y="-746.3" font-family="Times,serif" font-size="14.00">body_fat_per :double precision</text>
<text text-anchor="start" x="2095.83" y="-732.3" font-family="Times,serif" font-size="14.00">body_size_neck :double precision</text>
<text text-anchor="start" x="2095.83" y="-718.3" font-family="Times,serif" font-size="14.00">body_size_bust :double precision</text>
<text text-anchor="start" x="2095.83" y="-704.3" font-family="Times,serif" font-size="14.00">body_size_waist :double precision</text>
<text text-anchor="start" x="2095.83" y="-690.3" font-family="Times,serif" font-size="14.00">body_size_hip :double precision</text>
<text text-anchor="start" x="2095.83" y="-676.3" font-family="Times,serif" font-size="14.00">body_size_arm_right :double precision</text>
<text text-anchor="start" x="2095.83" y="-662.3" font-family="Times,serif" font-size="14.00">body_size_arm_left :double precision</text>
<text text-anchor="start" x="2095.83" y="-648.3" font-family="Times,serif" font-size="14.00">body_size_leg_right :double precision</text>
<text text-anchor="start" x="2095.83" y="-634.3" font-family="Times,serif" font-size="14.00">body_size_leg_left :double precision</text>
<text text-anchor="start" x="2095.83" y="-620.3" font-family="Times,serif" font-size="14.00">body_size_calf_right :double precision</text>
<text text-anchor="start" x="2095.83" y="-606.3" font-family="Times,serif" font-size="14.00">body_size_calf_left :double precision</text>
</g>
<!-- Page&#45;&gt;Line -->
<g id="edge1" class="edge"><title>Page&#45;&gt;Line</title>
<path fill="none" stroke="#d78e29" d="M2135.68,-591.298C2133.69,-580.29 2131.72,-569.348 2129.76,-558.509"/>
<ellipse fill="none" stroke="#d78e29" cx="2136.41" cy="-595.359" rx="4.00001" ry="4.00001"/>
<polygon fill="#d78e29" stroke="#d78e29" points="2129.75,-558.427 2132.4,-547.787 2128.86,-553.506 2127.97,-548.586 2127.97,-548.586 2127.97,-548.586 2128.86,-553.506 2123.54,-549.385 2129.75,-558.427 2129.75,-558.427"/>
</g>
<!-- PageImage -->
<g id="node12" class="node"><title>PageImage</title>
<path fill="none" stroke="black" d="M2232.83,-217.5C2232.83,-217.5 2456.55,-217.5 2456.55,-217.5 2462.55,-217.5 2468.55,-223.5 2468.55,-229.5 2468.55,-229.5 2468.55,-319.5 2468.55,-319.5 2468.55,-325.5 2462.55,-331.5 2456.55,-331.5 2456.55,-331.5 2232.83,-331.5 2232.83,-331.5 2226.83,-331.5 2220.83,-325.5 2220.83,-319.5 2220.83,-319.5 2220.83,-229.5 2220.83,-229.5 2220.83,-223.5 2226.83,-217.5 2232.83,-217.5"/>
<text text-anchor="middle" x="2344.69" y="-316.3" font-family="Times,serif" font-size="14.00">PageImage</text>
<polyline fill="none" stroke="black" points="2220.83,-309.5 2468.55,-309.5 "/>
<text text-anchor="start" x="2228.83" y="-294.3" font-family="Times,serif" font-size="14.00">id :integer</text>
<text text-anchor="start" x="2228.83" y="-280.3" font-family="Times,serif" font-size="14.00">page_id :integer</text>
<text text-anchor="start" x="2228.83" y="-266.3" font-family="Times,serif" font-size="14.00">data :bytea</text>
<text text-anchor="start" x="2228.83" y="-252.3" font-family="Times,serif" font-size="14.00">content_type :character varying</text>
<text text-anchor="start" x="2228.83" y="-238.3" font-family="Times,serif" font-size="14.00">created_at :timestamp without time zone</text>
<text text-anchor="start" x="2228.83" y="-224.3" font-family="Times,serif" font-size="14.00">updated_at :timestamp without time zone</text>
</g>
<!-- Page&#45;&gt;PageImage -->
<g id="edge2" class="edge"><title>Page&#45;&gt;PageImage</title>
<path fill="none" stroke="#068523" d="M2287.71,-591.21C2305.52,-492.544 2322.39,-399.034 2333.09,-339.766"/>
<ellipse fill="none" stroke="#068523" cx="2286.97" cy="-595.359" rx="4.00001" ry="4.00001"/>
<ellipse fill="#068523" stroke="#068523" cx="2333.85" cy="-335.57" rx="4.00001" ry="4.00001"/>
<text text-anchor="middle" x="2308.79" y="-569.8" font-family="Times,serif" font-size="14.00">image</text>
</g>
<!-- Part -->
<g id="node13" class="node"><title>Part</title>
<path fill="none" stroke="black" d="M2631.83,-970.5C2631.83,-970.5 2855.55,-970.5 2855.55,-970.5 2861.55,-970.5 2867.55,-976.5 2867.55,-982.5 2867.55,-982.5 2867.55,-1044.5 2867.55,-1044.5 2867.55,-1050.5 2861.55,-1056.5 2855.55,-1056.5 2855.55,-1056.5 2631.83,-1056.5 2631.83,-1056.5 2625.83,-1056.5 2619.83,-1050.5 2619.83,-1044.5 2619.83,-1044.5 2619.83,-982.5 2619.83,-982.5 2619.83,-976.5 2625.83,-970.5 2631.83,-970.5"/>
<text text-anchor="middle" x="2743.69" y="-1041.3" font-family="Times,serif" font-size="14.00">Part</text>
<polyline fill="none" stroke="black" points="2619.83,-1034.5 2867.55,-1034.5 "/>
<text text-anchor="start" x="2627.83" y="-1019.3" font-family="Times,serif" font-size="14.00">id :integer</text>
<text text-anchor="start" x="2627.83" y="-1005.3" font-family="Times,serif" font-size="14.00">name :character varying</text>
<text text-anchor="start" x="2627.83" y="-991.3" font-family="Times,serif" font-size="14.00">created_at :timestamp without time zone</text>
<text text-anchor="start" x="2627.83" y="-977.3" font-family="Times,serif" font-size="14.00">updated_at :timestamp without time zone</text>
</g>
<!-- Training -->
<g id="node14" class="node"><title>Training</title>
<path fill="none" stroke="black" d="M2897.83,-928.5C2897.83,-928.5 3121.55,-928.5 3121.55,-928.5 3127.55,-928.5 3133.55,-934.5 3133.55,-940.5 3133.55,-940.5 3133.55,-1086.5 3133.55,-1086.5 3133.55,-1092.5 3127.55,-1098.5 3121.55,-1098.5 3121.55,-1098.5 2897.83,-1098.5 2897.83,-1098.5 2891.83,-1098.5 2885.83,-1092.5 2885.83,-1086.5 2885.83,-1086.5 2885.83,-940.5 2885.83,-940.5 2885.83,-934.5 2891.83,-928.5 2897.83,-928.5"/>
<text text-anchor="middle" x="3009.69" y="-1083.3" font-family="Times,serif" font-size="14.00">Training</text>
<polyline fill="none" stroke="black" points="2885.83,-1076.5 3133.55,-1076.5 "/>
<text text-anchor="start" x="2893.83" y="-1061.3" font-family="Times,serif" font-size="14.00">id :integer</text>
<text text-anchor="start" x="2893.83" y="-1047.3" font-family="Times,serif" font-size="14.00">item_id :integer</text>
<text text-anchor="start" x="2893.83" y="-1033.3" font-family="Times,serif" font-size="14.00">weight :integer</text>
<text text-anchor="start" x="2893.83" y="-1019.3" font-family="Times,serif" font-size="14.00">reps :integer</text>
<text text-anchor="start" x="2893.83" y="-1005.3" font-family="Times,serif" font-size="14.00">set :integer</text>
<text text-anchor="start" x="2893.83" y="-991.3" font-family="Times,serif" font-size="14.00">mode_id :integer</text>
<text text-anchor="start" x="2893.83" y="-977.3" font-family="Times,serif" font-size="14.00">created_at :timestamp without time zone</text>
<text text-anchor="start" x="2893.83" y="-963.3" font-family="Times,serif" font-size="14.00">updated_at :timestamp without time zone</text>
<text text-anchor="start" x="2893.83" y="-949.3" font-family="Times,serif" font-size="14.00">day :date</text>
<text text-anchor="start" x="2893.83" y="-935.3" font-family="Times,serif" font-size="14.00">num :integer</text>
</g>
<!-- User -->
<g id="node15" class="node"><title>User</title>
<path fill="none" stroke="black" d="M3163.72,-928.5C3163.72,-928.5 3421.66,-928.5 3421.66,-928.5 3427.66,-928.5 3433.66,-934.5 3433.66,-940.5 3433.66,-940.5 3433.66,-1086.5 3433.66,-1086.5 3433.66,-1092.5 3427.66,-1098.5 3421.66,-1098.5 3421.66,-1098.5 3163.72,-1098.5 3163.72,-1098.5 3157.72,-1098.5 3151.72,-1092.5 3151.72,-1086.5 3151.72,-1086.5 3151.72,-940.5 3151.72,-940.5 3151.72,-934.5 3157.72,-928.5 3163.72,-928.5"/>
<text text-anchor="middle" x="3292.69" y="-1083.3" font-family="Times,serif" font-size="14.00">User</text>
<polyline fill="none" stroke="black" points="3151.72,-1076.5 3433.66,-1076.5 "/>
<text text-anchor="start" x="3159.72" y="-1061.3" font-family="Times,serif" font-size="14.00">id :integer</text>
<text text-anchor="start" x="3159.72" y="-1047.3" font-family="Times,serif" font-size="14.00">provider :character varying</text>
<text text-anchor="start" x="3159.72" y="-1033.3" font-family="Times,serif" font-size="14.00">uid :character varying</text>
<text text-anchor="start" x="3159.72" y="-1019.3" font-family="Times,serif" font-size="14.00">name :character varying</text>
<text text-anchor="start" x="3159.72" y="-1005.3" font-family="Times,serif" font-size="14.00">email :character varying</text>
<text text-anchor="start" x="3159.72" y="-991.3" font-family="Times,serif" font-size="14.00">icon :character varying</text>
<text text-anchor="start" x="3159.72" y="-977.3" font-family="Times,serif" font-size="14.00">oauth_token :character varying</text>
<text text-anchor="start" x="3159.72" y="-963.3" font-family="Times,serif" font-size="14.00">oauth_expires_at :timestamp without time zone</text>
<text text-anchor="start" x="3159.72" y="-949.3" font-family="Times,serif" font-size="14.00">created_at :timestamp without time zone</text>
<text text-anchor="start" x="3159.72" y="-935.3" font-family="Times,serif" font-size="14.00">updated_at :timestamp without time zone</text>
</g>
</g>
</svg>
