<?xml version="1.0" encoding="UTF-8" standalone="no"?>
<!DOCTYPE svg PUBLIC "-//W3C//DTD SVG 1.1//EN"
 "http://www.w3.org/Graphics/SVG/1.1/DTD/svg11.dtd">
<!-- Generated by graphviz version 2.38.0 (20140413.2041)
 -->
<!-- Title: models_diagram Pages: 1 -->
<svg width="1284pt" height="167pt"
 viewBox="0.00 0.00 1283.69 167.00" xmlns="http://www.w3.org/2000/svg" xmlns:xlink="http://www.w3.org/1999/xlink">
<g id="graph0" class="graph" transform="scale(1 1) rotate(0) translate(4 163)">
<title>models_diagram</title>
<polygon fill="none" stroke="none" points="-4,4 -4,-163 1279.69,-163 1279.69,4 -4,4"/>
<!-- _diagram_info -->
<g id="node1" class="node"><title>_diagram_info</title>
<text text-anchor="start" x="8" y="-144.6" font-family="Times,serif" font-size="13.00">Models diagram</text>
<text text-anchor="start" x="8" y="-131.6" font-family="Times,serif" font-size="13.00">Date: Jun 02 2016 &#45; 19:55</text>
<text text-anchor="start" x="8" y="-118.6" font-family="Times,serif" font-size="13.00">Migration version: 20160520124020</text>
<text text-anchor="start" x="8" y="-105.6" font-family="Times,serif" font-size="13.00">Generated by RailRoady 1.4.2</text>
<text text-anchor="start" x="8" y="-92.6" font-family="Times,serif" font-size="13.00">http://railroady.prestonlee.com</text>
</g>
<!-- Condition -->
<g id="node2" class="node"><title>Condition</title>
<ellipse fill="none" stroke="black" cx="270.688" cy="-122.5" rx="45.47" ry="18"/>
<text text-anchor="middle" x="270.688" y="-118.3" font-family="Times,serif" font-size="14.00">Condition</text>
</g>
<!-- Diet -->
<g id="node3" class="node"><title>Diet</title>
<ellipse fill="none" stroke="black" cx="360.688" cy="-122.5" rx="27" ry="18"/>
<text text-anchor="middle" x="360.688" y="-118.3" font-family="Times,serif" font-size="14.00">Diet</text>
</g>
<!-- Equipment -->
<g id="node4" class="node"><title>Equipment</title>
<ellipse fill="none" stroke="black" cx="454.688" cy="-122.5" rx="48.8273" ry="18"/>
<text text-anchor="middle" x="454.688" y="-118.3" font-family="Times,serif" font-size="14.00">Equipment</text>
</g>
<!-- Feeling -->
<g id="node5" class="node"><title>Feeling</title>
<ellipse fill="none" stroke="black" cx="558.688" cy="-122.5" rx="36.7663" ry="18"/>
<text text-anchor="middle" x="558.688" y="-118.3" font-family="Times,serif" font-size="14.00">Feeling</text>
</g>
<!-- Food -->
<g id="node6" class="node"><title>Food</title>
<ellipse fill="none" stroke="black" cx="641.688" cy="-122.5" rx="28.0822" ry="18"/>
<text text-anchor="middle" x="641.688" y="-118.3" font-family="Times,serif" font-size="14.00">Food</text>
</g>
<!-- FoodCategory -->
<g id="node7" class="node"><title>FoodCategory</title>
<ellipse fill="none" stroke="black" cx="748.688" cy="-122.5" rx="60.9133" ry="18"/>
<text text-anchor="middle" x="748.688" y="-118.3" font-family="Times,serif" font-size="14.00">FoodCategory</text>
</g>
<!-- Item -->
<g id="node8" class="node"><title>Item</title>
<ellipse fill="none" stroke="black" cx="854.688" cy="-122.5" rx="27" ry="18"/>
<text text-anchor="middle" x="854.688" y="-118.3" font-family="Times,serif" font-size="14.00">Item</text>
</g>
<!-- Line -->
<g id="node9" class="node"><title>Line</title>
<ellipse fill="none" stroke="black" cx="879.688" cy="-18" rx="27" ry="18"/>
<text text-anchor="middle" x="879.688" y="-13.8" font-family="Times,serif" font-size="14.00">Line</text>
</g>
<!-- Mode -->
<g id="node10" class="node"><title>Mode</title>
<ellipse fill="none" stroke="black" cx="1002.69" cy="-122.5" rx="30.9793" ry="18"/>
<text text-anchor="middle" x="1002.69" y="-118.3" font-family="Times,serif" font-size="14.00">Mode</text>
</g>
<!-- Page -->
<g id="node11" class="node"><title>Page</title>
<ellipse fill="none" stroke="black" cx="926.688" cy="-122.5" rx="27.0958" ry="18"/>
<text text-anchor="middle" x="926.688" y="-118.3" font-family="Times,serif" font-size="14.00">Page</text>
</g>
<!-- Page&#45;&gt;Line -->
<g id="edge1" class="edge"><title>Page&#45;&gt;Line</title>
<path fill="none" stroke="#f0590d" d="M915.723,-97.588C908.47,-81.7701 898.965,-61.0401 891.538,-44.8426"/>
<ellipse fill="none" stroke="#f0590d" cx="917.469" cy="-101.396" rx="4.00002" ry="4.00002"/>
<polygon fill="#f0590d" stroke="#f0590d" points="891.388,-44.5175 891.311,-33.5519 889.304,-39.9725 887.22,-35.4275 887.22,-35.4275 887.22,-35.4275 889.304,-39.9725 883.13,-37.3032 891.388,-44.5175 891.388,-44.5175"/>
</g>
<!-- PageImage -->
<g id="node12" class="node"><title>PageImage</title>
<ellipse fill="none" stroke="black" cx="973.688" cy="-18" rx="49.286" ry="18"/>
<text text-anchor="middle" x="973.688" y="-13.8" font-family="Times,serif" font-size="14.00">PageImage</text>
</g>
<!-- Page&#45;&gt;PageImage -->
<g id="edge2" class="edge"><title>Page&#45;&gt;PageImage</title>
<path fill="none" stroke="#668d69" d="M937.725,-97.4296C945.145,-81.2479 954.897,-59.9793 962.374,-43.6732"/>
<ellipse fill="none" stroke="#668d69" cx="935.906" cy="-101.396" rx="4.00002" ry="4.00002"/>
<ellipse fill="#668d69" stroke="#668d69" cx="964.174" cy="-39.7471" rx="4.00002" ry="4.00002"/>
<text text-anchor="middle" x="973.791" y="-56.8" font-family="Times,serif" font-size="14.00">image</text>
</g>
<!-- Part -->
<g id="node13" class="node"><title>Part</title>
<ellipse fill="none" stroke="black" cx="1078.69" cy="-122.5" rx="27" ry="18"/>
<text text-anchor="middle" x="1078.69" y="-118.3" font-family="Times,serif" font-size="14.00">Part</text>
</g>
<!-- Training -->
<g id="node14" class="node"><title>Training</title>
<ellipse fill="none" stroke="black" cx="1163.69" cy="-122.5" rx="40.0045" ry="18"/>
<text text-anchor="middle" x="1163.69" y="-118.3" font-family="Times,serif" font-size="14.00">Training</text>
</g>
<!-- User -->
<g id="node15" class="node"><title>User</title>
<ellipse fill="none" stroke="black" cx="1248.69" cy="-122.5" rx="27" ry="18"/>
<text text-anchor="middle" x="1248.69" y="-118.3" font-family="Times,serif" font-size="14.00">User</text>
</g>
</g>
</svg>
